M48
; DRILL file {KiCad (5.1.5)-3} date 1/1/2021 11:58:31 AM
; FORMAT={-:-/ absolute / inch / decimal}
; #@! TF.CreationDate,2021-01-01T11:58:31-08:00
; #@! TF.GenerationSoftware,Kicad,Pcbnew,(5.1.5)-3
; #@! TF.FileFunction,Plated,1,2,PTH
FMAT,2
INCH
T1C0.0157
T2C0.0276
T3C0.0295
T4C0.0315
T5C0.0354
T6C0.0394
%
G90
G05
T1
X3.7Y-2.018
X3.7196Y-0.3554
X3.7196Y-1.1264
X3.7196Y-1.5764
X3.854Y-0.704
X3.916Y-0.246
X3.962Y-0.214
X3.9888Y-0.8006
X4.024Y-0.246
X4.025Y-1.125
X4.072Y-0.214
X4.152Y-2.164
X4.178Y-0.2245
X4.226Y-0.706
X4.534Y-0.322
X4.566Y-1.066
X4.582Y-0.078
X4.78Y-0.96
X4.878Y-0.624
X5.014Y-0.072
X5.028Y-2.002
X5.058Y-1.302
X5.1Y-0.784
X5.1452Y-1.5202
X5.225Y-1.575
X5.25Y-1.4636
X5.275Y-1.8
X5.278Y-0.524
X5.3Y-1.0
X5.3364Y-1.85
X5.375Y-1.4
X5.375Y-1.45
X5.3878Y-2.1518
X5.4144Y-2.2216
X5.475Y-1.2465
X5.475Y-1.725
X5.475Y-2.225
X5.5Y-0.52
X5.5Y-1.775
X5.5048Y-2.0048
X5.525Y-1.05
X5.55Y-2.2
X5.57Y-0.078
X5.5798Y-1.8298
X5.6Y-1.3285
X5.625Y-1.675
X5.6465Y-1.85
X5.65Y-2.175
X5.6746Y-1.7754
X5.6961Y-1.8289
X5.7Y-1.6
X5.708Y-0.774
X5.7213Y-1.7117
X5.75Y-1.625
X5.7548Y-1.7452
X5.8Y-1.4
X5.8Y-2.225
X5.8497Y-1.4344
X5.875Y-2.225
X5.897Y-1.4816
X5.975Y-2.2
X5.986Y-0.646
X6.0Y-1.375
X6.048Y-0.986
X6.075Y-2.2
X6.086Y-0.526
X6.122Y-0.784
X6.15Y-1.55
X6.174Y-1.276
X6.275Y-1.525
X6.352Y-2.138
X6.445Y-0.375
X6.445Y-0.789
X6.445Y-1.289
X6.445Y-1.661
T2
X4.065Y-2.3622
X4.065Y-2.4606
X4.065Y-2.5591
X4.065Y-2.7559
X4.065Y-2.8543
X4.065Y-2.9528
X4.1634Y-2.3622
X4.1634Y-2.4606
X4.1634Y-2.5591
X4.1634Y-2.7559
X4.1634Y-2.8543
X4.1634Y-2.9528
X4.2618Y-2.3622
X4.2618Y-2.4606
X4.2618Y-2.5591
X4.2618Y-2.7559
X4.2618Y-2.8543
X4.2618Y-2.9528
X4.3602Y-2.3622
X4.3602Y-2.4606
X4.3602Y-2.5591
X4.3602Y-2.7559
X4.3602Y-2.8543
X4.3602Y-2.9528
X4.4587Y-2.3622
X4.4587Y-2.4606
X4.4587Y-2.5591
X4.4587Y-2.7559
X4.4587Y-2.8543
X4.4587Y-2.9528
X4.5571Y-2.3622
X4.5571Y-2.4606
X4.5571Y-2.5591
X4.5571Y-2.7559
X4.5571Y-2.8543
X4.5571Y-2.9528
X4.6555Y-2.3622
X4.6555Y-2.4606
X4.6555Y-2.5591
X4.6555Y-2.7559
X4.6555Y-2.8543
X4.6555Y-2.9528
X4.7539Y-2.3622
X4.7539Y-2.4606
X4.7539Y-2.5591
X4.7539Y-2.7559
X4.7539Y-2.8543
X4.7539Y-2.9528
X4.8524Y-2.3622
X4.8524Y-2.4606
X4.8524Y-2.5591
X4.8524Y-2.7559
X4.8524Y-2.8543
X4.8524Y-2.9528
X4.9508Y-2.3622
X4.9508Y-2.4606
X4.9508Y-2.5591
X4.9508Y-2.7559
X4.9508Y-2.8543
X4.9508Y-2.9528
X5.0492Y-2.3622
X5.0492Y-2.4606
X5.0492Y-2.5591
X5.0492Y-2.7559
X5.0492Y-2.8543
X5.0492Y-2.9528
X5.1476Y-2.3622
X5.1476Y-2.4606
X5.1476Y-2.5591
X5.1476Y-2.7559
X5.1476Y-2.8543
X5.1476Y-2.9528
X5.2461Y-2.3622
X5.2461Y-2.4606
X5.2461Y-2.5591
X5.2461Y-2.7559
X5.2461Y-2.8543
X5.2461Y-2.9528
X5.3445Y-2.3622
X5.3445Y-2.4606
X5.3445Y-2.5591
X5.3445Y-2.7559
X5.3445Y-2.8543
X5.3445Y-2.9528
X5.4429Y-2.3622
X5.4429Y-2.4606
X5.4429Y-2.5591
X5.4429Y-2.7559
X5.4429Y-2.8543
X5.4429Y-2.9528
X5.5413Y-2.3622
X5.5413Y-2.4606
X5.5413Y-2.5591
X5.5413Y-2.7559
X5.5413Y-2.8543
X5.5413Y-2.9528
X5.6398Y-2.3622
X5.6398Y-2.4606
X5.6398Y-2.5591
X5.6398Y-2.7559
X5.6398Y-2.8543
X5.6398Y-2.9528
X5.7382Y-2.3622
X5.7382Y-2.4606
X5.7382Y-2.5591
X5.7382Y-2.7559
X5.7382Y-2.8543
X5.7382Y-2.9528
X5.8366Y-2.3622
X5.8366Y-2.4606
X5.8366Y-2.5591
X5.8366Y-2.7559
X5.8366Y-2.8543
X5.8366Y-2.9528
X5.935Y-2.3622
X5.935Y-2.4606
X5.935Y-2.5591
X5.935Y-2.7559
X5.935Y-2.8543
X5.935Y-2.9528
X6.0335Y-2.3622
X6.0335Y-2.4606
X6.0335Y-2.5591
X6.0335Y-2.7559
X6.0335Y-2.8543
X6.0335Y-2.9528
X6.1319Y-2.3622
X6.1319Y-2.4606
X6.1319Y-2.5591
X6.1319Y-2.7559
X6.1319Y-2.8543
X6.1319Y-2.9528
X6.2303Y-2.3622
X6.2303Y-2.4606
X6.2303Y-2.5591
X6.2303Y-2.7559
X6.2303Y-2.8543
X6.2303Y-2.9528
X6.3287Y-2.3622
X6.3287Y-2.4606
X6.3287Y-2.5591
X6.3287Y-2.7559
X6.3287Y-2.8543
X6.3287Y-2.9528
T3
X4.15Y-0.9
X4.15Y-1.0
X4.2Y-0.95
T4
X4.65Y-0.4
X4.95Y-0.4
X4.4438Y-0.75
X4.4438Y-1.05
X5.8Y-0.65
X6.1Y-0.65
X6.445Y-1.9541
X6.445Y-2.151
X3.8Y-1.9531
X3.8Y-2.15
X5.2094Y-0.65
X5.5094Y-0.65
X3.8096Y-0.9
X3.8096Y-0.9984
X5.8Y-0.9
X6.1Y-0.9
X5.2183Y-0.9
X5.5183Y-0.9
X4.4438Y-0.4031
X4.4438Y-0.6
X5.216Y-0.4
X5.516Y-0.4
X5.8Y-0.4
X6.1Y-0.4
X5.65Y-1.15
X5.8469Y-1.15
X4.65Y-0.75
X4.95Y-0.75
X6.0781Y-1.1528
X6.275Y-1.1528
T5
X5.2Y-0.175
X5.3Y-0.175
T6
X6.575Y-0.1
X6.675Y-0.1
X6.775Y-0.1
X6.875Y-0.1
X6.975Y-0.1
X7.075Y-0.1
X7.175Y-0.1
X7.275Y-0.1
X7.375Y-0.1
X7.475Y-0.1
X4.05Y-1.95
X4.15Y-1.95
X4.25Y-1.95
X4.35Y-1.95
X4.45Y-1.95
X4.55Y-1.95
X4.65Y-1.95
X4.75Y-1.95
X4.85Y-1.95
X4.95Y-1.95
X6.575Y-2.1
X6.675Y-2.1
X6.775Y-2.1
X6.875Y-2.1
X6.975Y-2.1
X7.075Y-2.1
X7.175Y-2.1
X7.275Y-2.1
X7.375Y-2.1
X7.475Y-2.1
X6.575Y-0.2
X6.675Y-0.2
X6.775Y-0.2
X6.875Y-0.2
X6.975Y-0.2
X7.075Y-0.2
X7.175Y-0.2
X7.275Y-0.2
X7.375Y-0.2
X7.475Y-0.2
X6.575Y-1.3
X6.675Y-1.3
X6.775Y-1.3
X6.875Y-1.3
X6.975Y-1.3
X7.075Y-1.3
X7.175Y-1.3
X7.275Y-1.3
X7.375Y-1.3
X7.475Y-1.3
X6.575Y-1.9
X6.675Y-1.9
X6.775Y-1.9
X6.875Y-1.9
X6.975Y-1.9
X7.075Y-1.9
X7.175Y-1.9
X7.275Y-1.9
X7.375Y-1.9
X7.475Y-1.9
X6.575Y-0.8
X6.675Y-0.8
X6.775Y-0.8
X6.875Y-0.8
X6.975Y-0.8
X7.075Y-0.8
X7.175Y-0.8
X7.275Y-0.8
X7.375Y-0.8
X7.475Y-0.8
X6.575Y-0.4
X6.675Y-0.4
X6.775Y-0.4
X6.875Y-0.4
X6.975Y-0.4
X7.075Y-0.4
X7.175Y-0.4
X7.275Y-0.4
X7.375Y-0.4
X7.475Y-0.4
X6.575Y-2.5
X6.675Y-2.5
X6.775Y-2.5
X6.875Y-2.5
X6.975Y-2.5
X7.075Y-2.5
X7.175Y-2.5
X7.275Y-2.5
X7.375Y-2.5
X7.475Y-2.5
X6.575Y-0.3
X6.675Y-0.3
X6.775Y-0.3
X6.875Y-0.3
X6.975Y-0.3
X7.075Y-0.3
X7.175Y-0.3
X7.275Y-0.3
X7.375Y-0.3
X7.475Y-0.3
X6.575Y-1.4
X6.675Y-1.4
X6.775Y-1.4
X6.875Y-1.4
X6.975Y-1.4
X7.075Y-1.4
X7.175Y-1.4
X7.275Y-1.4
X7.375Y-1.4
X7.475Y-1.4
X6.575Y-2.8
X6.675Y-2.8
X6.775Y-2.8
X6.875Y-2.8
X6.975Y-2.8
X7.075Y-2.8
X7.175Y-2.8
X7.275Y-2.8
X7.375Y-2.8
X7.475Y-2.8
X6.575Y-0.9
X6.675Y-0.9
X6.775Y-0.9
X6.875Y-0.9
X6.975Y-0.9
X7.075Y-0.9
X7.175Y-0.9
X7.275Y-0.9
X7.375Y-0.9
X7.475Y-0.9
X4.05Y-1.65
X4.15Y-1.65
X4.25Y-1.65
X4.35Y-1.65
X4.45Y-1.65
X4.55Y-1.65
X4.65Y-1.65
X4.75Y-1.65
X4.85Y-1.65
X4.95Y-1.65
X6.575Y-2.3
X6.675Y-2.3
X6.775Y-2.3
X6.875Y-2.3
X6.975Y-2.3
X7.075Y-2.3
X7.175Y-2.3
X7.275Y-2.3
X7.375Y-2.3
X7.475Y-2.3
X6.575Y-2.2
X6.675Y-2.2
X6.775Y-2.2
X6.875Y-2.2
X6.975Y-2.2
X7.075Y-2.2
X7.175Y-2.2
X7.275Y-2.2
X7.375Y-2.2
X7.475Y-2.2
X6.575Y-2.0
X6.675Y-2.0
X6.775Y-2.0
X6.875Y-2.0
X6.975Y-2.0
X7.075Y-2.0
X7.175Y-2.0
X7.275Y-2.0
X7.375Y-2.0
X7.475Y-2.0
X5.829Y-0.164
X5.929Y-0.164
X6.029Y-0.164
X6.129Y-0.164
X6.229Y-0.164
X6.575Y-0.6
X6.675Y-0.6
X6.775Y-0.6
X6.875Y-0.6
X6.975Y-0.6
X7.075Y-0.6
X7.175Y-0.6
X7.275Y-0.6
X7.375Y-0.6
X7.475Y-0.6
X6.575Y-0.5
X6.675Y-0.5
X6.775Y-0.5
X6.875Y-0.5
X6.975Y-0.5
X7.075Y-0.5
X7.175Y-0.5
X7.275Y-0.5
X7.375Y-0.5
X7.475Y-0.5
X6.575Y-2.4
X6.675Y-2.4
X6.775Y-2.4
X6.875Y-2.4
X6.975Y-2.4
X7.075Y-2.4
X7.175Y-2.4
X7.275Y-2.4
X7.375Y-2.4
X7.475Y-2.4
X6.575Y-1.5
X6.675Y-1.5
X6.775Y-1.5
X6.875Y-1.5
X6.975Y-1.5
X7.075Y-1.5
X7.175Y-1.5
X7.275Y-1.5
X7.375Y-1.5
X7.475Y-1.5
X6.575Y-2.7
X6.675Y-2.7
X6.775Y-2.7
X6.875Y-2.7
X6.975Y-2.7
X7.075Y-2.7
X7.175Y-2.7
X7.275Y-2.7
X7.375Y-2.7
X7.475Y-2.7
X4.05Y-1.45
X4.15Y-1.45
X4.25Y-1.45
X4.35Y-1.45
X4.45Y-1.45
X4.55Y-1.45
X4.65Y-1.45
X4.75Y-1.45
X4.85Y-1.45
X4.95Y-1.45
X4.05Y-1.75
X4.15Y-1.75
X4.25Y-1.75
X4.35Y-1.75
X4.45Y-1.75
X4.55Y-1.75
X4.65Y-1.75
X4.75Y-1.75
X4.85Y-1.75
X4.95Y-1.75
X6.575Y-2.6
X6.675Y-2.6
X6.775Y-2.6
X6.875Y-2.6
X6.975Y-2.6
X7.075Y-2.6
X7.175Y-2.6
X7.275Y-2.6
X7.375Y-2.6
X7.475Y-2.6
X6.575Y-1.8
X6.675Y-1.8
X6.775Y-1.8
X6.875Y-1.8
X6.975Y-1.8
X7.075Y-1.8
X7.175Y-1.8
X7.275Y-1.8
X7.375Y-1.8
X7.475Y-1.8
X4.05Y-1.25
X4.15Y-1.25
X4.25Y-1.25
X4.35Y-1.25
X4.45Y-1.25
X4.55Y-1.25
X4.65Y-1.25
X4.75Y-1.25
X4.85Y-1.25
X4.95Y-1.25
X6.575Y-1.1
X6.675Y-1.1
X6.775Y-1.1
X6.875Y-1.1
X6.975Y-1.1
X7.075Y-1.1
X7.175Y-1.1
X7.275Y-1.1
X7.375Y-1.1
X7.475Y-1.1
X4.05Y-1.55
X4.15Y-1.55
X4.25Y-1.55
X4.35Y-1.55
X4.45Y-1.55
X4.55Y-1.55
X4.65Y-1.55
X4.75Y-1.55
X4.85Y-1.55
X4.95Y-1.55
X4.05Y-1.85
X4.15Y-1.85
X4.25Y-1.85
X4.35Y-1.85
X4.45Y-1.85
X4.55Y-1.85
X4.65Y-1.85
X4.75Y-1.85
X4.85Y-1.85
X4.95Y-1.85
X6.575Y-2.9
X6.675Y-2.9
X6.775Y-2.9
X6.875Y-2.9
X6.975Y-2.9
X7.075Y-2.9
X7.175Y-2.9
X7.275Y-2.9
X7.375Y-2.9
X7.475Y-2.9
X6.575Y-1.6
X6.675Y-1.6
X6.775Y-1.6
X6.875Y-1.6
X6.975Y-1.6
X7.075Y-1.6
X7.175Y-1.6
X7.275Y-1.6
X7.375Y-1.6
X7.475Y-1.6
X4.05Y-2.05
X4.15Y-2.05
X4.25Y-2.05
X4.35Y-2.05
X4.45Y-2.05
X4.55Y-2.05
X4.65Y-2.05
X4.75Y-2.05
X4.85Y-2.05
X4.95Y-2.05
X6.575Y-0.7
X6.675Y-0.7
X6.775Y-0.7
X6.875Y-0.7
X6.975Y-0.7
X7.075Y-0.7
X7.175Y-0.7
X7.275Y-0.7
X7.375Y-0.7
X7.475Y-0.7
X6.575Y-1.0
X6.675Y-1.0
X6.775Y-1.0
X6.875Y-1.0
X6.975Y-1.0
X7.075Y-1.0
X7.175Y-1.0
X7.275Y-1.0
X7.375Y-1.0
X7.475Y-1.0
X6.575Y-1.2
X6.675Y-1.2
X6.775Y-1.2
X6.875Y-1.2
X6.975Y-1.2
X7.075Y-1.2
X7.175Y-1.2
X7.275Y-1.2
X7.375Y-1.2
X7.475Y-1.2
X6.575Y-1.7
X6.675Y-1.7
X6.775Y-1.7
X6.875Y-1.7
X6.975Y-1.7
X7.075Y-1.7
X7.175Y-1.7
X7.275Y-1.7
X7.375Y-1.7
X7.475Y-1.7
X4.05Y-1.35
X4.15Y-1.35
X4.25Y-1.35
X4.35Y-1.35
X4.45Y-1.35
X4.55Y-1.35
X4.65Y-1.35
X4.75Y-1.35
X4.85Y-1.35
X4.95Y-1.35
T0
M30
