G04 #@! TF.GenerationSoftware,KiCad,Pcbnew,(5.1.5)-3*
G04 #@! TF.CreationDate,2021-01-01T11:58:36-08:00*
G04 #@! TF.ProjectId,uknc_fdd_sds,756b6e63-5f66-4646-945f-7364732e6b69,rev?*
G04 #@! TF.SameCoordinates,Original*
G04 #@! TF.FileFunction,Legend,Bot*
G04 #@! TF.FilePolarity,Positive*
%FSLAX46Y46*%
G04 Gerber Fmt 4.6, Leading zero omitted, Abs format (unit mm)*
G04 Created by KiCad (PCBNEW (5.1.5)-3) date 2021-01-01 11:58:36*
%MOMM*%
%LPD*%
G04 APERTURE LIST*
%ADD10C,0.400000*%
%ADD11C,0.200000*%
%ADD12C,0.500000*%
G04 APERTURE END LIST*
D10*
X155812142Y-47640952D02*
X156002619Y-47545714D01*
X156383571Y-47545714D01*
X156574047Y-47640952D01*
X156764523Y-47831428D01*
X156859761Y-48021904D01*
X156859761Y-48402857D01*
X156764523Y-48593333D01*
X156574047Y-48783809D01*
X156383571Y-48879047D01*
X156002619Y-48879047D01*
X155812142Y-48783809D01*
X156193095Y-46879047D02*
X156669285Y-46974285D01*
X157145476Y-47260000D01*
X157431190Y-47736190D01*
X157526428Y-48212380D01*
X157431190Y-48688571D01*
X157145476Y-49164761D01*
X156669285Y-49450476D01*
X156193095Y-49545714D01*
X155716904Y-49450476D01*
X155240714Y-49164761D01*
X154955000Y-48688571D01*
X154859761Y-48212380D01*
X154955000Y-47736190D01*
X155240714Y-47260000D01*
X155716904Y-46974285D01*
X156193095Y-46879047D01*
X152574047Y-47355238D02*
X152478809Y-47260000D01*
X152288333Y-47164761D01*
X151812142Y-47164761D01*
X151621666Y-47260000D01*
X151526428Y-47355238D01*
X151431190Y-47545714D01*
X151431190Y-47736190D01*
X151526428Y-48021904D01*
X152669285Y-49164761D01*
X151431190Y-49164761D01*
X150193095Y-47164761D02*
X150002619Y-47164761D01*
X149812142Y-47260000D01*
X149716904Y-47355238D01*
X149621666Y-47545714D01*
X149526428Y-47926666D01*
X149526428Y-48402857D01*
X149621666Y-48783809D01*
X149716904Y-48974285D01*
X149812142Y-49069523D01*
X150002619Y-49164761D01*
X150193095Y-49164761D01*
X150383571Y-49069523D01*
X150478809Y-48974285D01*
X150574047Y-48783809D01*
X150669285Y-48402857D01*
X150669285Y-47926666D01*
X150574047Y-47545714D01*
X150478809Y-47355238D01*
X150383571Y-47260000D01*
X150193095Y-47164761D01*
X148764523Y-47355238D02*
X148669285Y-47260000D01*
X148478809Y-47164761D01*
X148002619Y-47164761D01*
X147812142Y-47260000D01*
X147716904Y-47355238D01*
X147621666Y-47545714D01*
X147621666Y-47736190D01*
X147716904Y-48021904D01*
X148859761Y-49164761D01*
X147621666Y-49164761D01*
X146383571Y-47164761D02*
X146193095Y-47164761D01*
X146002619Y-47260000D01*
X145907380Y-47355238D01*
X145812142Y-47545714D01*
X145716904Y-47926666D01*
X145716904Y-48402857D01*
X145812142Y-48783809D01*
X145907380Y-48974285D01*
X146002619Y-49069523D01*
X146193095Y-49164761D01*
X146383571Y-49164761D01*
X146574047Y-49069523D01*
X146669285Y-48974285D01*
X146764523Y-48783809D01*
X146859761Y-48402857D01*
X146859761Y-47926666D01*
X146764523Y-47545714D01*
X146669285Y-47355238D01*
X146574047Y-47260000D01*
X146383571Y-47164761D01*
X143431190Y-49069523D02*
X143145476Y-49164761D01*
X142669285Y-49164761D01*
X142478809Y-49069523D01*
X142383571Y-48974285D01*
X142288333Y-48783809D01*
X142288333Y-48593333D01*
X142383571Y-48402857D01*
X142478809Y-48307619D01*
X142669285Y-48212380D01*
X143050238Y-48117142D01*
X143240714Y-48021904D01*
X143335952Y-47926666D01*
X143431190Y-47736190D01*
X143431190Y-47545714D01*
X143335952Y-47355238D01*
X143240714Y-47260000D01*
X143050238Y-47164761D01*
X142574047Y-47164761D01*
X142288333Y-47260000D01*
X141431190Y-49164761D02*
X141431190Y-47164761D01*
X140955000Y-47164761D01*
X140669285Y-47260000D01*
X140478809Y-47450476D01*
X140383571Y-47640952D01*
X140288333Y-48021904D01*
X140288333Y-48307619D01*
X140383571Y-48688571D01*
X140478809Y-48879047D01*
X140669285Y-49069523D01*
X140955000Y-49164761D01*
X141431190Y-49164761D01*
X139526428Y-49069523D02*
X139240714Y-49164761D01*
X138764523Y-49164761D01*
X138574047Y-49069523D01*
X138478809Y-48974285D01*
X138383571Y-48783809D01*
X138383571Y-48593333D01*
X138478809Y-48402857D01*
X138574047Y-48307619D01*
X138764523Y-48212380D01*
X139145476Y-48117142D01*
X139335952Y-48021904D01*
X139431190Y-47926666D01*
X139526428Y-47736190D01*
X139526428Y-47545714D01*
X139431190Y-47355238D01*
X139335952Y-47260000D01*
X139145476Y-47164761D01*
X138669285Y-47164761D01*
X138383571Y-47260000D01*
D11*
X137397857Y-36508571D02*
X137040714Y-37508571D01*
X136683571Y-36508571D01*
X135326428Y-37508571D02*
X136183571Y-37508571D01*
X135755000Y-37508571D02*
X135755000Y-36008571D01*
X135897857Y-36222857D01*
X136040714Y-36365714D01*
X136183571Y-36437142D01*
X134683571Y-37365714D02*
X134612142Y-37437142D01*
X134683571Y-37508571D01*
X134755000Y-37437142D01*
X134683571Y-37365714D01*
X134683571Y-37508571D01*
X133683571Y-36008571D02*
X133540714Y-36008571D01*
X133397857Y-36080000D01*
X133326428Y-36151428D01*
X133255000Y-36294285D01*
X133183571Y-36580000D01*
X133183571Y-36937142D01*
X133255000Y-37222857D01*
X133326428Y-37365714D01*
X133397857Y-37437142D01*
X133540714Y-37508571D01*
X133683571Y-37508571D01*
X133826428Y-37437142D01*
X133897857Y-37365714D01*
X133969285Y-37222857D01*
X134040714Y-36937142D01*
X134040714Y-36580000D01*
X133969285Y-36294285D01*
X133897857Y-36151428D01*
X133826428Y-36080000D01*
X133683571Y-36008571D01*
D12*
X157710714Y-35227142D02*
X157710714Y-37655714D01*
X157567857Y-37941428D01*
X157425000Y-38084285D01*
X157139285Y-38227142D01*
X156567857Y-38227142D01*
X156282142Y-38084285D01*
X156139285Y-37941428D01*
X155996428Y-37655714D01*
X155996428Y-35227142D01*
X154567857Y-38227142D02*
X154567857Y-35227142D01*
X152853571Y-38227142D02*
X154139285Y-36512857D01*
X152853571Y-35227142D02*
X154567857Y-36941428D01*
X151567857Y-38227142D02*
X151567857Y-35227142D01*
X149853571Y-38227142D01*
X149853571Y-35227142D01*
X146710714Y-37941428D02*
X146853571Y-38084285D01*
X147282142Y-38227142D01*
X147567857Y-38227142D01*
X147996428Y-38084285D01*
X148282142Y-37798571D01*
X148425000Y-37512857D01*
X148567857Y-36941428D01*
X148567857Y-36512857D01*
X148425000Y-35941428D01*
X148282142Y-35655714D01*
X147996428Y-35370000D01*
X147567857Y-35227142D01*
X147282142Y-35227142D01*
X146853571Y-35370000D01*
X146710714Y-35512857D01*
X157853571Y-43084285D02*
X157425000Y-43227142D01*
X156710714Y-43227142D01*
X156425000Y-43084285D01*
X156282142Y-42941428D01*
X156139285Y-42655714D01*
X156139285Y-42370000D01*
X156282142Y-42084285D01*
X156425000Y-41941428D01*
X156710714Y-41798571D01*
X157282142Y-41655714D01*
X157567857Y-41512857D01*
X157710714Y-41370000D01*
X157853571Y-41084285D01*
X157853571Y-40798571D01*
X157710714Y-40512857D01*
X157567857Y-40370000D01*
X157282142Y-40227142D01*
X156567857Y-40227142D01*
X156139285Y-40370000D01*
X154853571Y-43227142D02*
X154853571Y-40227142D01*
X154139285Y-40227142D01*
X153710714Y-40370000D01*
X153425000Y-40655714D01*
X153282142Y-40941428D01*
X153139285Y-41512857D01*
X153139285Y-41941428D01*
X153282142Y-42512857D01*
X153425000Y-42798571D01*
X153710714Y-43084285D01*
X154139285Y-43227142D01*
X154853571Y-43227142D01*
X151853571Y-42084285D02*
X149567857Y-42084285D01*
X147139285Y-41655714D02*
X148139285Y-41655714D01*
X148139285Y-43227142D02*
X148139285Y-40227142D01*
X146710714Y-40227142D01*
X144139285Y-43227142D02*
X145567857Y-43227142D01*
X145567857Y-40227142D01*
X142567857Y-40227142D02*
X141996428Y-40227142D01*
X141710714Y-40370000D01*
X141425000Y-40655714D01*
X141282142Y-41227142D01*
X141282142Y-42227142D01*
X141425000Y-42798571D01*
X141710714Y-43084285D01*
X141996428Y-43227142D01*
X142567857Y-43227142D01*
X142853571Y-43084285D01*
X143139285Y-42798571D01*
X143282142Y-42227142D01*
X143282142Y-41227142D01*
X143139285Y-40655714D01*
X142853571Y-40370000D01*
X142567857Y-40227142D01*
X139996428Y-43227142D02*
X139996428Y-40227142D01*
X138853571Y-40227142D01*
X138567857Y-40370000D01*
X138425000Y-40512857D01*
X138282142Y-40798571D01*
X138282142Y-41227142D01*
X138425000Y-41512857D01*
X138567857Y-41655714D01*
X138853571Y-41798571D01*
X139996428Y-41798571D01*
X136996428Y-43227142D02*
X136996428Y-40227142D01*
X135853571Y-40227142D01*
X135567857Y-40370000D01*
X135425000Y-40512857D01*
X135282142Y-40798571D01*
X135282142Y-41227142D01*
X135425000Y-41512857D01*
X135567857Y-41655714D01*
X135853571Y-41798571D01*
X136996428Y-41798571D01*
X133425000Y-41798571D02*
X133425000Y-43227142D01*
X134425000Y-40227142D02*
X133425000Y-41798571D01*
X132425000Y-40227142D01*
D11*
X120764285Y-89392142D02*
X120878571Y-89335000D01*
X120935714Y-89277857D01*
X120992857Y-89163571D01*
X120992857Y-89106428D01*
X120935714Y-88992142D01*
X120878571Y-88935000D01*
X120764285Y-88877857D01*
X120535714Y-88877857D01*
X120421428Y-88935000D01*
X120364285Y-88992142D01*
X120307142Y-89106428D01*
X120307142Y-89163571D01*
X120364285Y-89277857D01*
X120421428Y-89335000D01*
X120535714Y-89392142D01*
X120764285Y-89392142D01*
X120878571Y-89449285D01*
X120935714Y-89506428D01*
X120992857Y-89620714D01*
X120992857Y-89849285D01*
X120935714Y-89963571D01*
X120878571Y-90020714D01*
X120764285Y-90077857D01*
X120535714Y-90077857D01*
X120421428Y-90020714D01*
X120364285Y-89963571D01*
X120307142Y-89849285D01*
X120307142Y-89620714D01*
X120364285Y-89506428D01*
X120421428Y-89449285D01*
X120535714Y-89392142D01*
X140563571Y-90128857D02*
X141249285Y-90128857D01*
X140906428Y-90128857D02*
X140906428Y-88928857D01*
X141020714Y-89100285D01*
X141135000Y-89214571D01*
X141249285Y-89271714D01*
X139535000Y-88928857D02*
X139763571Y-88928857D01*
X139877857Y-88986000D01*
X139935000Y-89043142D01*
X140049285Y-89214571D01*
X140106428Y-89443142D01*
X140106428Y-89900285D01*
X140049285Y-90014571D01*
X139992142Y-90071714D01*
X139877857Y-90128857D01*
X139649285Y-90128857D01*
X139535000Y-90071714D01*
X139477857Y-90014571D01*
X139420714Y-89900285D01*
X139420714Y-89614571D01*
X139477857Y-89500285D01*
X139535000Y-89443142D01*
X139649285Y-89386000D01*
X139877857Y-89386000D01*
X139992142Y-89443142D01*
X140049285Y-89500285D01*
X140106428Y-89614571D01*
X162083571Y-89735000D02*
X161512142Y-89735000D01*
X162197857Y-90077857D02*
X161797857Y-88877857D01*
X161397857Y-90077857D01*
X161055000Y-88992142D02*
X160997857Y-88935000D01*
X160883571Y-88877857D01*
X160597857Y-88877857D01*
X160483571Y-88935000D01*
X160426428Y-88992142D01*
X160369285Y-89106428D01*
X160369285Y-89220714D01*
X160426428Y-89392142D01*
X161112142Y-90077857D01*
X160369285Y-90077857D01*
X159340714Y-89277857D02*
X159340714Y-90077857D01*
X159626428Y-88820714D02*
X159912142Y-89677857D01*
X159169285Y-89677857D01*
X104024142Y-89849500D02*
X103452714Y-89849500D01*
X104138428Y-90192357D02*
X103738428Y-88992357D01*
X103338428Y-90192357D01*
X102309857Y-90192357D02*
X102995571Y-90192357D01*
X102652714Y-90192357D02*
X102652714Y-88992357D01*
X102767000Y-89163785D01*
X102881285Y-89278071D01*
X102995571Y-89335214D01*
M02*
